<svg width="167" height="42" viewBox="0 0 167 42" fill="none" xmlns="http://www.w3.org/2000/svg">
<path d="M44.1655 35.1558C42.7057 35.8948 30.0716 38.436 20.4654 35.8407C13.2923 33.8942 3.72211 28.3251 0.532056 26.3967C-0.0446777 26.0362 -0.170838 25.2612 0.243689 24.7386L12.0487 9.77956C12.5533 9.14875 13.5446 9.20282 13.9591 9.8877C15.8696 12.9155 20.7177 20.1067 26.467 24.9909C34.1989 31.5512 40.4528 33.3896 44.2016 33.8221C44.6702 33.8762 45.6074 34.3989 44.1655 35.1558Z" fill="#00E0C7"/>
<path d="M40.7596 29.9471C39.5701 29.6768 31.0273 25.135 26.7018 19.0433C23.5838 14.6637 20.7902 7.25627 19.7629 4.3726C19.5286 3.72378 19.9251 3.05693 20.592 2.91275L33.8388 0.0290808C34.6318 -0.151148 35.3528 0.533725 35.2627 1.32673C34.9202 4.2104 34.3975 10.3202 35.3708 15.6189C36.7225 23.0984 39.462 27.1536 41.4265 29.1902C41.6788 29.4425 41.9672 30.1994 40.7777 29.9471H40.7596Z" fill="#00E0C7"/>
<path d="M42.1111 26.4867C41.5704 25.8379 38.7768 19.7822 38.939 14.6276C39.0472 11.1312 40.4349 6.283 41.1378 4.04815C41.3361 3.39933 42.057 3.09294 42.6878 3.38131L50.3295 6.94985C51.0685 7.29228 51.2307 8.26552 50.672 8.86027C49.1941 10.4283 46.6709 13.33 45.1209 16.3758C42.7419 21.0438 42.5436 24.4141 42.7779 26.3605C42.814 26.5948 42.6518 27.1355 42.1111 26.5047V26.4867Z" fill="#00E0C7"/>
<path d="M45.2828 24.5765C45.2648 24.0899 46.1299 20.3231 48.0223 18.0162C49.2478 16.5383 51.4286 14.8982 52.6001 14.0691C53.0146 13.7808 53.5914 13.925 53.8257 14.3755L55.8442 18.2685C56.1146 18.8092 55.7721 19.476 55.1774 19.5661C53.9158 19.7824 51.9152 20.215 50.2571 21.008C47.4996 22.3056 46.238 23.7835 45.6613 24.7567C45.5892 24.8829 45.3189 25.0631 45.3008 24.5765H45.2828Z" fill="#00E0C7"/>
<path d="M72.2999 32.9569C70.5516 32.9569 69.0017 32.5243 67.6139 31.6592C66.2622 30.7941 65.1988 29.6587 64.4058 28.2349C63.6128 26.793 63.2343 25.189 63.2343 23.4408C63.2343 21.6926 63.6489 20.1426 64.4959 18.7188C65.361 17.2769 66.5145 16.1235 67.9563 15.2944C69.3982 14.4293 71.0383 13.9968 72.8586 13.9968C74.6789 13.9968 76.319 14.4113 77.7608 15.2584C79.2026 16.0694 80.3561 17.1868 81.1852 18.6106C82.0503 20.0345 82.4828 21.6385 82.4828 23.4408V32.5063H79.0224V25.7657L80.284 24.8105C80.284 26.3425 79.9416 27.7122 79.2567 28.9378C78.5899 30.1633 77.6527 31.1546 76.4632 31.8935C75.2917 32.6145 73.9039 32.9569 72.3359 32.9569H72.2999ZM72.8586 29.4965C73.994 29.4965 75.0033 29.2261 75.9225 28.6855C76.8236 28.1448 77.5445 27.4238 78.0672 26.5047C78.5899 25.5675 78.8422 24.5582 78.8422 23.4768C78.8422 22.3955 78.5899 21.3681 78.0672 20.449C77.5445 19.5478 76.8416 18.8089 75.9225 18.2682C75.0213 17.7095 73.994 17.4211 72.8586 17.4211C71.7231 17.4211 70.7139 17.7095 69.7947 18.2682C68.9116 18.8089 68.1906 19.5298 67.65 20.449C67.1273 21.3501 66.875 22.3594 66.875 23.4768C66.875 24.5942 67.1273 25.5675 67.65 26.5047C68.1906 27.4058 68.9116 28.1448 69.7947 28.6855C70.6958 29.2261 71.7231 29.4965 72.8586 29.4965Z" fill="#253E53"/>
<path d="M86.952 6.17501H90.5926V32.5245H86.952V6.17501Z" fill="#253E53"/>
<path d="M103.515 32.9209C101.695 32.9209 100.054 32.5244 98.6126 31.7133C97.1708 30.8843 96.0173 29.7488 95.1883 28.325C94.3592 26.8832 93.9267 25.2251 93.9267 23.3867C93.9267 21.6746 94.3052 20.0885 95.0621 18.6647C95.8191 17.2229 96.9005 16.0694 98.2702 15.2404C99.6399 14.3753 101.244 13.9427 103.064 13.9427C104.885 13.9427 106.435 14.3392 107.75 15.1503C109.084 15.9433 110.093 17.0246 110.814 18.3944C111.553 19.7461 111.914 21.26 111.914 22.9181V24.396H96.7743L97.4411 22.9181C97.3691 24.1978 97.5853 25.3332 98.072 26.3425C98.5586 27.3518 99.2795 28.1628 100.217 28.7756C101.154 29.3704 102.235 29.6587 103.497 29.6587C104.632 29.6587 105.642 29.4064 106.561 28.9198C107.498 28.4332 108.237 27.6942 108.778 26.703L111.571 28.1448C110.778 29.6948 109.697 30.8663 108.291 31.6773C106.885 32.4883 105.299 32.8848 103.533 32.8848L103.515 32.9209ZM97.6214 22.053H108.273C108.219 21.0978 107.967 20.2508 107.498 19.5118C107.047 18.7729 106.435 18.2142 105.66 17.8177C104.903 17.4212 104.02 17.2229 103.046 17.2229C102.073 17.2229 101.136 17.4392 100.361 17.8537C99.6039 18.2682 98.9911 18.845 98.5225 19.5839C98.072 20.3228 97.7836 21.1519 97.6394 22.053H97.6214Z" fill="#253E53"/>
<path d="M122.944 41.2475C120.997 41.2475 119.267 40.8329 117.717 39.9859C116.167 39.1568 114.978 37.9313 114.148 36.3452L117.212 34.6871C117.735 35.6784 118.474 36.4354 119.465 37.0121C120.456 37.6068 121.592 37.8952 122.89 37.8952C124.187 37.8952 125.269 37.6068 126.206 37.0121C127.161 36.4534 127.918 35.6423 128.459 34.579C128.999 33.5517 129.27 32.3261 129.27 30.9384V27.1355L130.189 26.2885C130.189 27.3698 129.901 28.4152 129.306 29.4244C128.747 30.4157 127.9 31.2087 126.801 31.8575C125.719 32.4703 124.404 32.7767 122.854 32.7767C121.159 32.7767 119.609 32.3802 118.204 31.5692C116.834 30.7401 115.716 29.6227 114.887 28.2169C114.076 26.7931 113.68 25.1891 113.68 23.4228C113.68 21.6566 114.094 20.1246 114.941 18.7008C115.807 17.277 116.96 16.1416 118.402 15.3125C119.844 14.4474 121.484 14.0148 123.304 14.0148C125.124 14.0148 126.765 14.4294 128.206 15.2765C129.648 16.0875 130.802 17.2049 131.631 18.6287C132.496 20.0525 132.928 21.6566 132.928 23.4589V30.9023C132.928 32.993 132.496 34.8133 131.631 36.3633C130.766 37.9313 129.594 39.1388 128.098 39.9679C126.602 40.833 124.89 41.2655 122.98 41.2655L122.944 41.2475ZM123.232 29.3524C124.331 29.3524 125.341 29.1 126.26 28.5774C127.161 28.0367 127.882 27.3158 128.405 26.3966C128.945 25.4594 129.216 24.4501 129.216 23.3687C129.216 22.2874 128.945 21.2601 128.405 20.3769C127.882 19.4758 127.179 18.7549 126.26 18.2322C125.359 17.7095 124.349 17.4572 123.232 17.4572C122.115 17.4572 121.123 17.7095 120.204 18.2322C119.321 18.7549 118.6 19.4578 118.059 20.3769C117.519 21.2601 117.248 22.2513 117.248 23.3687C117.248 24.4862 117.519 25.4594 118.059 26.3966C118.6 27.2977 119.321 28.0367 120.204 28.5774C121.105 29.1 122.115 29.3524 123.232 29.3524Z" fill="#253E53"/>
<path d="M140.282 32.5244H136.641V21.7647C136.641 20.2868 136.912 18.9712 137.452 17.8177C138.011 16.6642 138.822 15.7631 139.886 15.0962C140.967 14.4294 142.301 14.105 143.869 14.105C144.463 14.105 145.022 14.159 145.563 14.2852C146.121 14.3753 146.644 14.5375 147.113 14.7718V18.3764C146.662 18.1061 146.194 17.9078 145.671 17.7816C145.184 17.6555 144.68 17.6014 144.193 17.6014C142.985 17.6014 142.03 17.9979 141.327 18.7729C140.642 19.5299 140.3 20.5752 140.3 21.9089V32.5244H140.282Z" fill="#253E53"/>
<path d="M156.268 32.9569C154.52 32.9569 152.97 32.5243 151.582 31.6592C150.231 30.7941 149.167 29.6587 148.374 28.2349C147.581 26.793 147.203 25.189 147.203 23.4408C147.203 21.6926 147.617 20.1426 148.464 18.7188C149.329 17.2769 150.483 16.1235 151.925 15.2944C153.367 14.4293 155.007 13.9968 156.827 13.9968C158.647 13.9968 160.287 14.4113 161.729 15.2584C163.171 16.0694 164.324 17.1868 165.154 18.6106C166.019 20.0345 166.451 21.6385 166.451 23.4408V32.5063H162.991V25.7657L164.252 24.8105C164.252 26.3425 163.91 27.7122 163.225 28.9378C162.558 30.1633 161.621 31.1546 160.432 31.8935C159.26 32.6145 157.872 32.9569 156.304 32.9569H156.268ZM156.827 29.4965C157.962 29.4965 158.972 29.2261 159.891 28.6855C160.792 28.1448 161.513 27.4238 162.036 26.5047C162.558 25.5675 162.811 24.5582 162.811 23.4768C162.811 22.3955 162.558 21.3681 162.036 20.449C161.513 19.5478 160.81 18.8089 159.891 18.2682C158.99 17.7095 157.962 17.4211 156.827 17.4211C155.692 17.4211 154.682 17.7095 153.763 18.2682C152.88 18.8089 152.159 19.5298 151.618 20.449C151.096 21.3501 150.843 22.3594 150.843 23.4768C150.843 24.5942 151.096 25.5675 151.618 26.5047C152.159 27.4058 152.88 28.1448 153.763 28.6855C154.664 29.2261 155.692 29.4965 156.827 29.4965Z" fill="#253E53"/>
</svg>
